<?xml version="1.0" standalone="no"?>
<!DOCTYPE svg PUBLIC "-//W3C//DTD SVG 20010904//EN"
 "http://www.w3.org/TR/2001/REC-SVG-20010904/DTD/svg10.dtd">
<svg version="1.0" xmlns="http://www.w3.org/2000/svg"
 width="256.000000pt" height="256.000000pt" viewBox="0 0 256.000000 256.000000"
 preserveAspectRatio="xMidYMid meet">

<g transform="translate(0.000000,256.000000) scale(0.100000,-0.100000)"
fill="#000000" stroke="none">
<path d="M325 2067 c-58 -15 -138 -98 -153 -159 -17 -66 -17 -1190 0 -1256 16
-65 95 -144 160 -160 67 -17 1829 -17 1896 0 65 16 144 95 160 160 17 66 17
1190 0 1256 -16 65 -95 144 -160 160 -62 16 -1843 15 -1903 -1z m1363 -419
l-408 -271 -397 263 c-219 145 -402 267 -407 272 -6 4 357 8 805 8 l814 0
-407 -272z m-893 -138 c255 -170 474 -310 486 -310 12 0 229 138 483 307 253
170 464 309 468 311 5 2 8 -251 8 -563 l0 -566 -25 -24 -24 -25 -911 0 -911 0
-24 25 -25 24 0 566 c0 311 2 565 5 565 3 0 214 -139 470 -310z"/>
</g>
</svg>
