<?xml version="1.0" standalone="no"?>
<!DOCTYPE svg PUBLIC "-//W3C//DTD SVG 20010904//EN"
 "http://www.w3.org/TR/2001/REC-SVG-20010904/DTD/svg10.dtd">
<svg version="1.0" xmlns="http://www.w3.org/2000/svg"
 width="512.000000pt" height="512.000000pt" viewBox="0 0 512.000000 512.000000"
 preserveAspectRatio="xMidYMid meet">

<g transform="translate(0.000000,512.000000) scale(0.100000,-0.100000)"
fill="#000000" stroke="none">
<path d="M802 4696 c-184 -45 -343 -209 -381 -394 -15 -75 -15 -3409 0 -3484
39 -190 207 -358 397 -397 37 -8 561 -11 1745 -11 1861 0 1757 -3 1878 61 122
65 230 210 258 347 15 75 15 3409 0 3484 -28 137 -136 282 -258 347 -121 64
-16 61 -1886 60 -1343 -1 -1711 -3 -1753 -13z m745 -821 c238 -71 260 -365 34
-469 -37 -16 -66 -21 -146 -21 -89 0 -106 4 -157 28 -157 77 -199 266 -85 385
78 82 228 115 354 77z m193 -1775 l0 -970 -305 0 -305 0 0 970 0 970 305 0
305 0 0 -970z m920 845 c0 -69 2 -125 3 -125 2 0 24 18 48 41 90 84 216 153
339 186 92 25 320 25 410 0 123 -34 207 -83 301 -176 101 -102 156 -199 197
-349 l27 -97 3 -647 3 -648 -305 0 -305 0 -3 568 c-3 553 -4 568 -25 624 -31
83 -77 144 -136 183 -68 44 -129 58 -230 53 -135 -7 -219 -65 -278 -193 -15
-33 -33 -89 -38 -125 -7 -39 -11 -276 -11 -587 l0 -523 -305 0 -305 0 0 970 0
970 305 0 305 0 0 -125z"/>
</g>
</svg>
